P3
2 4
255
9
10
11
6
7
8
3
4
5
0
1
2
21
22
23
18
19
20
15
16
17
12
13
14
